<svg xmlns="http://www.w3.org/2000/svg" width="256" height="256" viewBox="0 0 256 256"><circle cx="128" cy="128" r="120" fill="url(#a)"/><defs><linearGradient id="a" x1="0%" x2="100%" y1="0%" y2="100%"><stop offset="0%" style="stop-color:#3b82f6;stop-opacity:1"/><stop offset="100%" style="stop-color:#8b5cf6;stop-opacity:1"/></linearGradient></defs><rect width="35" height="35" x="60" y="60" fill="#fff" opacity=".9" rx="6"/><rect width="35" height="35" x="110" y="60" fill="#fff" opacity=".9" rx="6"/><rect width="35" height="35" x="160" y="60" fill="#fff" opacity=".9" rx="6"/><rect width="35" height="35" x="60" y="110" fill="#fff" opacity=".9" rx="6"/><rect width="35" height="35" x="110" y="110" fill="#fbbf24" rx="6"/><rect width="35" height="35" x="160" y="110" fill="#fff" opacity=".9" rx="6"/><rect width="35" height="35" x="60" y="160" fill="#fff" opacity=".9" rx="6"/><rect width="35" height="35" x="110" y="160" fill="#fff" opacity=".9" rx="6"/><rect width="35" height="35" x="160" y="160" fill="#fff" opacity=".9" rx="6"/><path stroke="#fbbf24" stroke-linecap="round" stroke-width="5" d="M127 110V92"/><path fill="#fbbf24" d="m127 87-5 8h10z"/><path stroke="#fbbf24" stroke-linecap="round" stroke-width="5" d="M145 127h18"/><path fill="#fbbf24" d="m168 127-8-5v10z"/><path stroke="#fbbf24" stroke-linecap="round" stroke-width="5" d="M127 145v18"/><path fill="#fbbf24" d="m127 168-5-8h10z"/><path stroke="#fbbf24" stroke-linecap="round" stroke-width="5" d="M110 127H92"/><path fill="#fbbf24" d="m87 127 8-5v10z"/><path fill="none" stroke="#fff" stroke-linejoin="round" stroke-width="2.5" d="M122 120h3l2 8h8l-2-4h-7"/><circle cx="128" cy="131" r="1.5" fill="#fff"/><circle cx="132" cy="131" r="1.5" fill="#fff"/></svg>